HIERARCHY
ROOT Hips
{
     OFFSET 25.08770 93.61990 -30.85030
     CHANNELS 6 Xposition Yposition Zposition Zrotation Xrotation Yrotation
     JOINT Spine
     {
          OFFSET 0.00000 11.89050 0.00000
          CHANNELS 3 Zrotation Xrotation Yrotation
          JOINT Spine1
          {
               OFFSET 0.00000 25.65740 0.12766
               CHANNELS 3 Zrotation Xrotation Yrotation
               JOINT HEad
               {
                    OFFSET 0.00000 8.73416 0.01134
                    CHANNELS 3 Zrotation Xrotation Yrotation
                    End Site
                    {
                         OFFSET -0.29000 12.77420 2.51395
                    }
               }
               JOINT LeftShoulder1
               {
                    OFFSET 8.99000 -0.36225 -0.22000
                    CHANNELS 3 Zrotation Xrotation Yrotation
                    JOINT LeftArm
                    {
                         OFFSET 10.28270 -0.00338 0.32212
                         CHANNELS 3 Zrotation Xrotation Yrotation
                         JOINT LeftForeArm
                         {
                              OFFSET 32.76690 0.09914 -1.42434
                              CHANNELS 3 Zrotation Xrotation Yrotation
                              JOINT LeftHand
                              {
                                   OFFSET 27.56430 0.08536 1.02216
                                   CHANNELS 3 Zrotation Xrotation Yrotation
                                   End Site
                                   {
                                        OFFSET 16.74430 -0.60000 1.50291
                                   }
                              }
                         }
                    }
               }
               JOINT RightShoulder
               {
                    OFFSET -8.99000 -0.36225 -0.22000
                    CHANNELS 3 Zrotation Xrotation Yrotation
                    JOINT RightArm
                    {
                         OFFSET -10.28270 -0.00338 0.32212
                         CHANNELS 3 Zrotation Xrotation Yrotation
                         JOINT RightForeArm
                         {
                              OFFSET -32.89710 0.09914 -1.42434
                              CHANNELS 3 Zrotation Xrotation Yrotation
                              JOINT RightHand
                              {
                                   OFFSET -27.49210 0.08536 1.02216
                                   CHANNELS 3 Zrotation Xrotation Yrotation
                                   End Site
                                   {
                                        OFFSET -16.63120 -0.60000 1.50291
                                   }
                              }
                         }
                    }
               }
          }
     }
     JOINT LeftUpLeg
     {
          OFFSET 8.94580 -8.66707 0.10165
          CHANNELS 3 Zrotation Xrotation Yrotation
          JOINT LeftLeg
          {
               OFFSET 0.00000 -44.42270 1.37270
               CHANNELS 3 Zrotation Xrotation Yrotation
               JOINT LeftFoot
               {
                    OFFSET -0.25355 -42.09240 -1.46059
                    CHANNELS 3 Zrotation Xrotation Yrotation
                    JOINT LeftToes
                    {
                         OFFSET -0.04000 -4.41509 8.49910
                         CHANNELS 3 Zrotation Xrotation Yrotation
                         End Site
                         {
                              OFFSET 0.08000 -0.04745 9.77979
                         }
                    }
               }
          }
     }
     JOINT RightUpLeg
     {
          OFFSET -8.94580 -8.66707 0.10165
          CHANNELS 3 Zrotation Xrotation Yrotation
          JOINT RightLeg
          {
               OFFSET 0.00000 -44.42270 1.37270
               CHANNELS 3 Zrotation Xrotation Yrotation
               JOINT RightFoot
               {
                    OFFSET 0.25355 -42.09240 -1.46059
                    CHANNELS 3 Zrotation Xrotation Yrotation
                    JOINT RightToes
                    {
                         OFFSET 0.04000 -4.41509 8.49910
                         CHANNELS 3 Zrotation Xrotation Yrotation
                         End Site
                         {
                              OFFSET -0.08000 -0.13745 9.77979
                         }
                    }
               }
          }
     }
}
MOTION
Frames: 12
Frame Time: 0.01667
4.49695 84.71950 30.32090 11.93890 11.94510 165.31300 -15.20500 4.13077 -13.16400 -13.72990 14.41810 -26.55610 19.73920 8.12273 -49.49050 0.00000 0.00000 0.00000 -41.88430 18.35050 -92.27000 16.26020 21.48840 -87.91860 47.48190 15.99700 18.71060 13.38830 -0.97142 -8.65520 -14.19290 -39.90100 -5.18081 -11.01790 15.24830 125.66700 7.43746 10.19250 -0.16861 22.28950 19.80190 8.69006 -20.83400 46.66500 63.87770 12.12380 -17.38310 1.14846 -58.04980 -51.29990 -28.37980 11.77150 -25.17730 -5.23218 -3.41189 7.10878 40.03780 29.95700 5.00338 -3.46419 19.26800 49.86460 -19.41650 
4.64167 84.69020 30.62690 11.56640 12.13880 166.44099 -15.41680 4.13907 -12.58520 -14.13490 14.39060 -25.42240 19.06310 7.83402 -46.25710 0.00000 0.00000 0.00000 -42.45830 17.40390 -91.53900 17.55730 22.23110 -89.74810 47.71540 16.36150 19.48730 12.86060 -0.84536 -8.06072 -13.35250 -39.46730 -1.81153 -10.43310 16.40720 124.25600 7.81771 10.18260 -0.48865 22.53690 19.01200 8.18833 -20.77680 47.30050 63.62760 12.32150 -17.26640 1.15201 -58.55990 -51.22010 -28.97330 10.82290 -24.80450 -6.22502 -3.05594 6.35957 39.41030 29.62000 4.22404 -3.22576 20.36210 50.62270 -21.03760 
4.82387 84.74090 31.01460 11.01980 12.36220 168.25800 -15.62090 4.27515 -12.03860 -14.58970 14.56320 -24.32790 18.75660 7.41924 -42.55600 0.00000 0.00000 0.00000 -43.54570 16.07310 -90.30070 18.02550 22.90270 -91.38230 47.88080 16.59350 19.97080 12.34900 -0.73499 -7.52611 -12.43840 -39.83310 1.36086 -9.87781 17.51000 122.96000 7.94561 10.16970 -0.71857 22.95870 17.93310 7.54632 -20.50950 47.96540 62.66430 12.31600 -17.01240 1.12145 -59.30260 -50.98500 -29.93270 9.78694 -24.67620 -6.82204 -3.07466 6.04419 38.30530 28.91260 3.26521 -2.90933 21.44100 50.95500 -23.06670 
5.02598 84.85460 31.43120 10.34710 12.57750 170.67799 -15.76090 4.51649 -11.52630 -14.98320 14.88080 -23.27450 18.71830 6.88341 -38.45700 0.00000 0.00000 0.00000 -45.14760 14.34690 -88.63970 17.62080 23.52360 -92.54620 47.92470 16.65250 20.09240 11.77840 -0.62818 -7.00048 -11.18880 -40.93080 4.58939 -9.28891 18.56020 121.85500 7.62782 10.15960 -0.72019 23.50060 16.59960 6.77507 -20.05160 48.61180 61.15340 12.27690 -16.65120 1.07553 -60.26060 -50.68960 -31.15490 8.55974 -24.75400 -7.00132 -3.30232 6.10597 36.56930 28.01750 2.33354 -2.59468 22.23980 50.89770 -24.92000 
5.23947 85.01700 31.82520 9.56807 12.76590 173.58800 -15.79490 4.82601 -11.02900 -15.22570 15.26980 -22.23260 18.73340 6.31907 -34.08170 0.00000 0.00000 0.00000 -47.21210 12.26880 -86.67430 16.36150 24.14500 -93.06570 47.88640 16.54640 19.85860 11.07440 -0.51364 -6.42101 -9.49569 -42.56530 8.02483 -8.52221 19.65380 120.87200 6.72915 10.14830 -0.46228 24.07700 15.08290 5.86858 -19.46790 49.16430 59.27430 12.32490 -16.22890 1.02952 -61.35020 -50.41130 -32.48400 7.03054 -24.96670 -6.74234 -3.53667 6.49372 34.02140 27.15500 1.53170 -2.32841 22.75000 50.66330 -26.35830 
5.46670 85.22180 32.16580 8.68067 12.92290 176.86900 -15.69970 5.18100 -10.50220 -15.28330 15.68930 -21.13010 18.63360 5.82318 -29.63680 0.00000 0.00000 0.00000 -49.58120 9.96417 -84.56740 14.36740 24.78470 -92.89960 47.81710 16.32490 19.36510 10.26000 -0.39421 -5.77981 -7.40397 -44.47340 11.71060 -7.50000 20.83430 119.89400 5.24953 10.12470 0.03683 24.57900 13.45740 4.84291 -18.77270 49.58670 57.03340 12.39540 -15.83950 0.98876 -62.26810 -50.20260 -33.57210 5.13890 -25.23770 -6.03353 -3.60133 7.19743 30.58680 26.39360 0.85185 -2.11029 23.09050 50.38970 -27.48070 
5.71434 85.46990 32.44370 7.69577 13.03490 -179.58099 -15.44650 5.57406 -9.90289 -15.14540 16.12350 -19.89020 18.33310 5.41951 -25.35000 0.00000 0.00000 0.00000 -52.05870 7.60170 -82.44920 11.92260 25.42100 -92.19270 47.77860 16.05330 18.74210 9.39677 -0.28221 -5.13466 -5.02540 -46.39240 15.62400 -6.36630 22.00700 118.90100 3.40829 10.07950 0.70670 24.91970 11.76590 3.75470 -17.87000 49.89650 54.27510 12.31380 -15.56380 0.95025 -62.65660 -50.09910 -34.04250 2.92718 -25.52460 -4.92874 -3.39588 8.23116 26.35330 25.60780 0.24483 -1.91590 23.42720 50.13190 -28.58070 
5.98683 85.76540 32.66080 6.64411 13.07350 -175.82500 -14.99190 5.99602 -9.21963 -14.79130 16.54830 -18.48620 17.78410 5.11819 -21.41000 0.00000 0.00000 0.00000 -54.49480 5.31523 -80.34940 9.41015 26.04320 -91.26050 47.89610 15.79000 18.08610 8.50070 -0.18832 -4.56512 -2.44505 -48.09840 19.73390 -5.43096 23.00340 117.99400 1.58781 10.01420 1.38155 25.06880 10.02010 2.65036 -16.63590 50.10510 50.90260 11.92550 -15.35420 0.89865 -62.44500 -50.03840 -33.88440 0.52346 -25.83270 -3.57344 -2.93352 9.60268 21.49200 24.64820 -0.33555 -1.72429 23.94310 49.94630 -29.98010 
6.28406 86.11000 32.81760 5.55616 13.01080 -171.88300 -14.29400 6.42782 -8.48189 -14.19280 16.92780 -16.97350 16.95200 4.99723 -17.89100 0.00000 0.00000 0.00000 -56.82510 3.13008 -78.21300 7.14817 26.69440 -90.45740 48.30200 15.56380 17.43090 7.52752 -0.11268 -4.09268 0.30880 -49.43230 24.02570 -4.90921 23.73670 117.25300 0.15070 9.94724 1.85511 25.05200 8.23014 1.52283 -15.04860 50.16790 47.03360 11.14480 -15.03770 0.81071 -61.92170 -49.81410 -33.55460 -1.92636 -26.18300 -2.19432 -2.33126 11.29500 16.21040 23.48860 -0.88367 -1.53712 24.67730 49.80400 -31.79380 
6.60667 86.49300 32.89820 4.43278 12.84090 -167.75200 -13.35920 6.83545 -7.74276 -13.34330 17.21940 -15.46020 15.83170 5.13270 -14.69880 0.00000 0.00000 0.00000 -59.04770 0.95617 -75.94810 5.28248 27.45730 -90.02680 49.02200 15.36910 16.76850 6.43995 -0.04541 -3.64074 3.18293 -50.29710 28.45290 -4.76293 24.26500 116.64300 -0.70611 9.90173 2.01170 24.91930 6.44106 0.34938 -13.21290 50.01170 42.90620 9.97481 -14.47440 0.67899 -61.46180 -49.22300 -33.59640 -4.33144 -26.60810 -1.06072 -1.73870 13.36400 10.82060 22.15750 -1.36334 -1.36487 25.39000 49.50690 -33.78300 
6.96138 86.88950 32.86520 3.25291 12.58410 -163.44901 -12.25720 7.18501 -7.03366 -12.28450 17.39740 -14.01280 14.49590 5.47749 -11.66440 0.00000 0.00000 0.00000 -61.10400 -1.31512 -73.50830 3.83124 28.37400 -90.04370 49.94510 15.19260 16.11220 5.29809 0.02013 -3.11858 6.02233 -50.63860 32.88430 -4.75521 24.71780 116.05800 -1.01411 9.88519 1.91298 24.72890 4.74328 -0.85459 -11.28560 49.57420 38.70530 8.52210 -13.64120 0.52130 -61.30960 -48.25890 -34.26310 -6.64433 -27.10760 -0.40123 -1.28956 15.87930 5.78424 20.64850 -1.73412 -1.21412 25.66010 48.81380 -35.43060 
7.36200 87.26350 32.65830 2.00875 12.27580 -159.02901 -11.08970 7.46458 -6.33977 -11.08870 17.46900 -12.60250 13.07900 5.87307 -8.70100 0.00000 0.00000 0.00000 -62.83920 -3.69062 -70.95830 2.80827 29.38140 -90.45520 50.87640 15.04090 15.53320 4.22546 0.08151 -2.51136 8.63292 -50.45470 37.12160 -4.64408 25.16510 115.41900 -0.98731 9.88702 1.73625 24.56760 3.25162 -2.02229 -9.39508 48.81830 34.46470 6.89691 -12.56830 0.36161 -61.55410 -47.07420 -35.51620 -8.79755 -27.63040 -0.30306 -1.10850 18.84320 1.64476 18.98360 -2.03898 -1.07654 25.18960 47.63090 -36.26250 
